<svg xmlns="http://www.w3.org/2000/svg" xmlns:xlink="http://www.w3.org/1999/xlink" width="84.952003" height="647.973633" viewBox="0 0 84.952 647.974"><path d="M30.0023 0L60.0046 337L0 337L30.0023 0Z" fill="#F26957" fill-opacity="1.000000" stroke-opacity="0" transform="matrix(1 0 0 1 12.4737 12.4737)"/><path d="M30.0023 0L60.0046 337L0 337L30.0023 0Z" stroke="#FFFFFF" stroke-opacity="1.000000" stroke-width="2" stroke-dasharray="0 0" fill-opacity="0" transform="matrix(1 0 0 1 12.4737 12.4737)"/><path d="M29.001 0L58.002 297.5L0 297.5L29.001 0Z" fill="#FFFFFF" fill-opacity="0.000000" stroke-opacity="0" transform="matrix(-1 0 -8.61673e-06 -1 71.4783 646.974)"/><path d="M29.001 0L58.002 297.5L0 297.5L29.001 0Z" stroke="#FFFFFF" stroke-opacity="1.000000" stroke-width="1" stroke-dasharray="0 0" fill-opacity="0" transform="matrix(-1 0 -8.61673e-06 -1 71.4783 646.974)"/></svg>