<svg xmlns="http://www.w3.org/2000/svg" xmlns:xlink="http://www.w3.org/1999/xlink" width="103.358643" height="138.016083" viewBox="0 0 103.359 138.016"><path d="M0 0L102.79 0L102.79 137.447L0 137.447L0 0Z" fill="#D0D2D4" fill-opacity="0.000000" stroke-opacity="0" transform="matrix(1 0 0 1 0.284302 0.284332)"/><path d="M0 0L102.79 0L102.79 137.447L0 137.447L0 0Z" stroke="#FFFFFF" stroke-opacity="1.000000" stroke-width="1" stroke-dasharray="0 0" fill-opacity="0" transform="matrix(1 0 0 1 0.284302 0.284332)"/><path d="M12.7528 0L25.5056 68.7237L0 68.7237L12.7528 0Z" fill="#FF1E00" fill-opacity="1.000000" stroke-opacity="0" transform="matrix(1 0 0 1 38.9265 0.284332)"/><path d="M12.7528 0L25.5056 68.7237L0 68.7237L12.7528 0Z" stroke="#D64A43" stroke-opacity="1.000000" stroke-width="1" stroke-dasharray="0 0" fill-opacity="0" transform="matrix(1 0 0 1 38.9265 0.284332)"/><path d="M12.6105 0L25.2211 68.7237L0 68.7237L12.6105 0Z" fill="#FFFFFF" fill-opacity="1.000000" stroke-opacity="0" transform="matrix(-1 0 8.88124e-06 -1 64.1477 137.732)"/><path d="M12.6105 0L25.2211 68.7237L0 68.7237L12.6105 0Z" stroke="#D64A43" stroke-opacity="1.000000" stroke-width="1" stroke-dasharray="0 0" fill-opacity="0" transform="matrix(-1 0 8.88124e-06 -1 64.1477 137.732)"/></svg>