<?xml version="1.0" standalone="no"?><!DOCTYPE svg PUBLIC "-//W3C//DTD SVG 1.1//EN" "http://www.w3.org/Graphics/SVG/1.1/DTD/svg11.dtd"><svg t="1668417931604" class="icon" viewBox="0 0 1024 1024" version="1.1" xmlns="http://www.w3.org/2000/svg" p-id="3846" xmlns:xlink="http://www.w3.org/1999/xlink" width="200" height="200"><path d="M160 640a32 32 0 0 1 32 32 96 96 0 0 0 86.784 95.552L288 768h512a96 96 0 0 1 9.216 191.552L800 960h-640a32 32 0 0 1-5.76-63.488L160 896h640a32 32 0 0 0 5.76-63.488L800 832h-512A160 160 0 0 1 128 672a32 32 0 0 1 32-32z m352.256-511.296c141.376 0 256.192 114.624 256 256C768 576 576 768 512 768c-64 0-256-192-255.744-383.296 0.192-141.376 114.56-256 256-256z m0 64a192.128 192.128 0 0 0-192 192.064C320 516.48 466.112 704 512 704c45.888 0 192.064-187.648 192.256-319.36a191.872 191.872 0 0 0-192-191.936z m0 64a128 128 0 1 1 0 256 128 128 0 0 1 0-256z m0 64a64 64 0 1 0 0 128 64 64 0 0 0 0-128z" p-id="3847" fill="#1296db"></path></svg>